HIERARCHY
ROOT pelvis
{
  OFFSET 0 100 0
  CHANNELS 6 Xposition Yposition Zposition Zrotation Xrotation Yrotation
  JOINT pelvis_right_femur
  {
    OFFSET -10.78128 -3.44521 -0.5502486
    CHANNELS 3 Zrotation Xrotation Yrotation
    JOINT right_femur_tibia
    {
      OFFSET -0.8047443 -44.0398 -0.1307829
      CHANNELS 3 Zrotation Xrotation Yrotation
      JOINT right_tibia_foot
      {
        OFFSET 3.006224 -47.83518 -5
        CHANNELS 3 Zrotation Xrotation Yrotation
        End Site
        {
          OFFSET 0 -5 15
        }
      }
    }
  }
  JOINT pelvis_left_femur
  {
    OFFSET 10.78128 -3.44521 -0.5502486
    CHANNELS 3 Zrotation Xrotation Yrotation
    JOINT left_femur_tibia
    {
      OFFSET 0.8047443 -44.0398 -0.1307829
      CHANNELS 3 Zrotation Xrotation Yrotation
      JOINT left_tibia_foot
      {
        OFFSET -4.370144 -48.10324 -4.275266
        CHANNELS 3 Zrotation Xrotation Yrotation
        End Site
        {
          OFFSET 0 -5 15
        }
      }
    }
  }
  JOINT pelvis_spine1
  {
    OFFSET 0 6.468898 -3.129235
    CHANNELS 3 Zrotation Xrotation Yrotation
    JOINT spine1
    {
      OFFSET 0 23.15396 4.99043
      CHANNELS 3 Zrotation Xrotation Yrotation
      JOINT spine2
      {
        OFFSET 0 20.79997 -5.064912
        CHANNELS 3 Zrotation Xrotation Yrotation
        JOINT neck
        {
          OFFSET 0 14.38658 9.616178
          CHANNELS 3 Zrotation Xrotation Yrotation
          End Site
          {
            OFFSET 0 20 0
          }
        }
      }
      JOINT right_manubrium
      {
        OFFSET -5.722621 16.35077 3.967754
        CHANNELS 3 Zrotation Xrotation Yrotation
        JOINT right_clavicle
        {
          OFFSET -13.16364 1.694482 -4.693211
          CHANNELS 3 Zrotation Xrotation Yrotation
          JOINT right_humerus
          {
            OFFSET -28.5034 -0.3100689 -2.792744
            CHANNELS 3 Zrotation Xrotation Yrotation
            JOINT right_radius
            {
              OFFSET -25.15693 0.02248979 -1.271978
              CHANNELS 3 Zrotation Xrotation Yrotation
              End Site
              {
                OFFSET -15 0 0
              }
            }
          }
        }
      }
      JOINT left_manubrium
      {
        OFFSET 5.722621 16.35077 3.967754
        CHANNELS 3 Zrotation Xrotation Yrotation
        JOINT left_clavicle
        {
          OFFSET 13.16364 1.694482 -4.693211
          CHANNELS 3 Zrotation Xrotation Yrotation
          JOINT left_humerus
          {
            OFFSET 29.39168 -1.063119 -2.237045
            CHANNELS 3 Zrotation Xrotation Yrotation
            JOINT left_radius
            {
              OFFSET 24.59957 -0.9528479 0.9047498
              CHANNELS 3 Zrotation Xrotation Yrotation
              End Site
              {
                OFFSET 15 -0 -0
              }
            }
          }
        }
      }
    }
  }
}
MOTION
Frames: 13
Frame Time: 0.0416666666667
-1603.971 107.9619 1348.537 -7.72748 5.548174 -137.2491 0.6215956 10.25178 -3.011467 -0 23.36544 -0 -18.5761 -1.784933 2.794973 -0.2012407 -14.56199 -7.103316 -0 25.23475 -0 -3.726422 -3.274463 15.93661 -1.192924 1.077115 7.091139 -2.067806 11.54496 -3.327615 -0.6897558 21.73571 7.695871 9.16162 -13.50933 2.064823 3.520443 -21.63035 11.45039 83.0046 36.30962 -8.706129 -0 0 23.50123 -23.02789 7.130678 5.076595 6.705597 -23.02396 -8.289836 -92.82047 4.320073 28.5399 -0 0 1.359876 15.95446 11.60236 -9.485562
-1608.585 107.953 1345.043 -7.696391 5.591346 -137.5695 0.6215956 10.25178 -3.011467 -0 23.36544 -0 -18.5761 -1.784933 2.794973 -0.2012407 -14.56199 -7.103316 -0 25.23475 -0 -3.726422 -3.274463 15.93661 -1.192924 1.077115 7.091139 -2.067806 11.54496 -3.327615 -0.6897558 21.73571 7.695871 9.16162 -13.50933 2.064823 3.520443 -21.63035 11.45039 83.0046 36.30962 -8.706129 -0 0 23.50123 -23.02789 7.130678 5.076595 6.705597 -23.02396 -8.289836 -92.82047 4.320073 28.5399 -0 0 1.359876 15.95446 11.60236 -9.485562
-1613.18 107.9441 1341.523 -7.665057 5.634344 -137.8898 0.6215956 10.25178 -3.011467 -0 23.36544 -0 -18.5761 -1.784933 2.794973 -0.2012407 -14.56199 -7.103316 -0 25.23475 -0 -3.726422 -3.274463 15.93661 -1.192924 1.077115 7.091139 -2.067806 11.54496 -3.327615 -0.6897558 21.73571 7.695871 9.16162 -13.50933 2.064823 3.520443 -21.63035 11.45039 83.0046 36.30962 -8.706129 -0 0 23.50123 -23.02789 7.130678 5.076595 6.705597 -23.02396 -8.289836 -92.82047 4.320073 28.5399 -0 0 1.359876 15.95446 11.60236 -9.485562
-1617.755 107.9352 1337.976 -7.63348 5.677167 -138.2102 0.6215956 10.25178 -3.011467 -0 23.36544 -0 -18.5761 -1.784933 2.794973 -0.2012407 -14.56199 -7.103316 -0 25.23475 -0 -3.726422 -3.274463 15.93661 -1.192924 1.077115 7.091139 -2.067806 11.54496 -3.327615 -0.6897558 21.73571 7.695871 9.16162 -13.50933 2.064823 3.520443 -21.63035 11.45039 83.0046 36.30962 -8.706129 -0 0 23.50123 -23.02789 7.130678 5.076595 6.705597 -23.02396 -8.289836 -92.82047 4.320073 28.5399 -0 0 1.359876 15.95446 11.60236 -9.485562
-1622.31 107.9263 1334.405 -7.601661 5.719813 -138.5307 0.6215956 10.25178 -3.011467 -0 23.36544 -0 -18.5761 -1.784933 2.794973 -0.2012407 -14.56199 -7.103316 -0 25.23475 -0 -3.726422 -3.274463 15.93661 -1.192924 1.077115 7.091139 -2.067806 11.54496 -3.327615 -0.6897558 21.73571 7.695871 9.16162 -13.50933 2.064823 3.520443 -21.63035 11.45039 83.0046 36.30962 -8.706129 -0 0 23.50123 -23.02789 7.130678 5.076595 6.705597 -23.02396 -8.289836 -92.82047 4.320073 28.5399 -0 0 1.359876 15.95446 11.60236 -9.485562
-1626.845 107.9173 1330.808 -7.5696 5.762282 -138.8512 0.6215956 10.25178 -3.011467 -0 23.36544 -0 -18.5761 -1.784933 2.794973 -0.2012407 -14.56199 -7.103316 -0 25.23475 -0 -3.726422 -3.274463 15.93661 -1.192924 1.077115 7.091139 -2.067806 11.54496 -3.327615 -0.6897558 21.73571 7.695871 9.16162 -13.50933 2.064823 3.520443 -21.63035 11.45039 83.0046 36.30962 -8.706129 -0 0 23.50123 -23.02789 7.130678 5.076595 6.705597 -23.02396 -8.289836 -92.82047 4.320073 28.5399 -0 0 1.359876 15.95446 11.60236 -9.485562
-1631.36 107.9084 1327.185 -7.537298 5.804572 -139.1718 0.6215956 10.25178 -3.011467 -0 23.36544 -0 -18.5761 -1.784933 2.794973 -0.2012407 -14.56199 -7.103316 -0 25.23475 -0 -3.726422 -3.274463 15.93661 -1.192924 1.077115 7.091139 -2.067806 11.54496 -3.327615 -0.6897558 21.73571 7.695871 9.16162 -13.50933 2.064823 3.520443 -21.63035 11.45039 83.0046 36.30962 -8.706129 -0 0 23.50123 -23.02789 7.130678 5.076595 6.705597 -23.02396 -8.289836 -92.82047 4.320073 28.5399 -0 0 1.359876 15.95446 11.60236 -9.485562
-1635.854 107.8995 1323.537 -7.504756 5.846681 -139.4924 0.6215956 10.25178 -3.011467 -0 23.36544 -0 -18.5761 -1.784933 2.794973 -0.2012407 -14.56199 -7.103316 -0 25.23475 -0 -3.726422 -3.274463 15.93661 -1.192924 1.077115 7.091139 -2.067806 11.54496 -3.327615 -0.6897558 21.73571 7.695871 9.16162 -13.50933 2.064823 3.520443 -21.63035 11.45039 83.0046 36.30962 -8.706129 -0 0 23.50123 -23.02789 7.130678 5.076595 6.705597 -23.02396 -8.289836 -92.82047 4.320073 28.5399 -0 0 1.359876 15.95446 11.60236 -9.485562
-1640.328 107.8906 1319.864 -7.471976 5.888609 -139.813 0.6215956 10.25178 -3.011467 -0 23.36544 -0 -18.5761 -1.784933 2.794973 -0.2012407 -14.56199 -7.103316 -0 25.23475 -0 -3.726422 -3.274463 15.93661 -1.192924 1.077115 7.091139 -2.067806 11.54496 -3.327615 -0.6897558 21.73571 7.695871 9.16162 -13.50933 2.064823 3.520443 -21.63035 11.45039 83.0046 36.30962 -8.706129 -0 0 23.50123 -23.02789 7.130678 5.076595 6.705597 -23.02396 -8.289836 -92.82047 4.320073 28.5399 -0 0 1.359876 15.95446 11.60236 -9.485562
-1644.781 107.8817 1316.166 -7.438957 5.930353 -140.1337 0.6215956 10.25178 -3.011467 -0 23.36544 -0 -18.5761 -1.784933 2.794973 -0.2012407 -14.56199 -7.103316 -0 25.23475 -0 -3.726422 -3.274463 15.93661 -1.192924 1.077115 7.091139 -2.067806 11.54496 -3.327615 -0.6897558 21.73571 7.695871 9.16162 -13.50933 2.064823 3.520443 -21.63035 11.45039 83.0046 36.30962 -8.706129 -0 0 23.50123 -23.02789 7.130678 5.076595 6.705597 -23.02396 -8.289836 -92.82047 4.320073 28.5399 -0 0 1.359876 15.95446 11.60236 -9.485562
-1649.213 107.8727 1312.443 -7.405702 5.971913 -140.4544 0.6215956 10.25178 -3.011467 -0 23.36544 -0 -18.5761 -1.784933 2.794973 -0.2012407 -14.56199 -7.103316 -0 25.23475 -0 -3.726422 -3.274463 15.93661 -1.192924 1.077115 7.091139 -2.067806 11.54496 -3.327615 -0.6897558 21.73571 7.695871 9.16162 -13.50933 2.064823 3.520443 -21.63035 11.45039 83.0046 36.30962 -8.706129 -0 0 23.50123 -23.02789 7.130678 5.076595 6.705597 -23.02396 -8.289836 -92.82047 4.320073 28.5399 -0 0 1.359876 15.95446 11.60236 -9.485562
-1653.624 107.8638 1308.695 -7.372211 6.013287 -140.7752 0.6215956 10.25178 -3.011467 -0 23.36544 -0 -18.5761 -1.784933 2.794973 -0.2012407 -14.56199 -7.103316 -0 25.23475 -0 -3.726422 -3.274463 15.93661 -1.192924 1.077115 7.091139 -2.067806 11.54496 -3.327615 -0.6897558 21.73571 7.695871 9.16162 -13.50933 2.064823 3.520443 -21.63035 11.45039 83.0046 36.30962 -8.706129 -0 0 23.50123 -23.02789 7.130678 5.076595 6.705597 -23.02396 -8.289836 -92.82047 4.320073 28.5399 -0 0 1.359876 15.95446 11.60236 -9.485562
-1658.015 107.8549 1304.922 -7.338485 6.054473 -141.0961 0.6215956 10.25178 -3.011467 -0 23.36544 -0 -18.5761 -1.784933 2.794973 -0.2012407 -14.56199 -7.103316 -0 25.23475 -0 -3.726422 -3.274463 15.93661 -1.192924 1.077115 7.091139 -2.067806 11.54496 -3.327615 -0.6897558 21.73571 7.695871 9.16162 -13.50933 2.064823 3.520443 -21.63035 11.45039 83.0046 36.30962 -8.706129 -0 0 23.50123 -23.02789 7.130678 5.076595 6.705597 -23.02396 -8.289836 -92.82047 4.320073 28.5399 -0 0 1.359876 15.95446 11.60236 -9.485562
